<?xml version="1.0" encoding="iso-8859-1"?>
<!-- Generator: Adobe Illustrator 19.0.0, SVG Export Plug-In . SVG Version: 6.00 Build 0)  -->
<svg version="1.1" id="Layer_1" xmlns="http://www.w3.org/2000/svg" xmlns:xlink="http://www.w3.org/1999/xlink" x="0px" y="0px"
	 viewBox="0 0 512 512" style="enable-background:new 0 0 512 512;" xml:space="preserve">
<circle style="fill:#FFEDB5;" cx="256" cy="256" r="256"/>
<path style="fill:#FEE187;" d="M78.979,365.609l144.846,144.382C234.365,511.314,245.101,512,256,512c141.384,0,256-114.616,256-256
	c0-12.512-0.915-24.809-2.65-36.842L407.755,118.072L78.979,365.609z"/>
<path style="fill:#474747;" d="M114.785,341.333h282.433c8.411,0,15.227-6.818,15.227-15.227V129.007
	c0-8.411-6.818-15.229-15.227-15.229H114.785c-8.411,0-15.229,6.818-15.229,15.229v197.099
	C99.556,334.515,106.374,341.333,114.785,341.333z"/>
<path style="fill:#282828;" d="M397.217,113.778H256.288v227.556h140.929c8.411,0,15.227-6.818,15.227-15.227V129.005
	C412.444,120.596,405.626,113.778,397.217,113.778z"/>
<path style="fill:#FFFFFF;" d="M124.761,304.269h262.478c4.637,0,8.397-3.76,8.397-8.397V140.276c0-4.637-3.76-8.397-8.397-8.397
	H124.761c-4.637,0-8.397,3.76-8.397,8.397v155.596C116.364,300.51,120.123,304.269,124.761,304.269z"/>
<path style="fill:#E5E5E5;" d="M387.239,131.879H256.288v172.391h130.951c4.637,0,8.397-3.76,8.397-8.397V140.276
	C395.636,135.639,391.877,131.879,387.239,131.879z"/>
<path style="fill:#575F66;" d="M86.769,368.916h338.46c6.03,0,10.918-4.889,10.918-10.917v-28.157
	c0-6.03-4.889-10.918-10.918-10.918H86.769c-6.03,0-10.917,4.889-10.917,10.918v28.157
	C75.852,364.027,80.741,368.916,86.769,368.916z"/>
<path style="fill:#474E54;" d="M425.231,318.923H256.288v49.993h168.943c6.03,0,10.917-4.889,10.917-10.917v-28.157
	C436.148,323.812,431.259,318.923,425.231,318.923z"/>
<path style="fill:#8E969B;" d="M229.279,347.367h53.441c6.189,0,11.205-5.017,11.205-11.205v-17.239h-75.852v17.239
	C218.074,342.35,223.091,347.367,229.279,347.367z"/>
<path style="fill:#778084;" d="M256.288,318.923v28.444h26.433c6.189,0,11.205-5.017,11.205-11.205v-17.239H256.288z"/>
<rect x="142.222" y="158.599" style="fill:#71E2EF;" width="227.556" height="56.889"/>
<rect x="256.293" y="158.599" style="fill:#38C6D9;" width="113.49" height="56.889"/>
<path style="fill:#4F4F4F;" d="M342.83,202.852l-38.647-10.54c-1.991-0.543-3.817,1.284-3.274,3.274l10.538,38.647
	c0.538,1.976,3.01,2.631,4.458,1.184l6.925-6.925c1.041-1.041,2.729-1.041,3.77,0l26.727,26.727c1.041,1.041,2.729,1.041,3.77,0
	l6.716-6.716c1.041-1.041,1.041-2.729,0-3.77l-26.727-26.727c-1.041-1.041-1.041-2.729,0-3.77l6.925-6.925
	C345.462,205.862,344.805,203.39,342.83,202.852z"/>
<g>
</g>
<g>
</g>
<g>
</g>
<g>
</g>
<g>
</g>
<g>
</g>
<g>
</g>
<g>
</g>
<g>
</g>
<g>
</g>
<g>
</g>
<g>
</g>
<g>
</g>
<g>
</g>
<g>
</g>
</svg>
